{
	"patcher" : 	{
		"fileversion" : 1,
		"rect" : [ 624.0, 340.0, 715.0, 477.0 ],
		"bglocked" : 0,
		"defrect" : [ 624.0, 340.0, 715.0, 477.0 ],
		"openrect" : [ 0.0, 0.0, 0.0, 0.0 ],
		"openinpresentation" : 0,
		"default_fontsize" : 12.0,
		"default_fontface" : 0,
		"default_fontname" : "Arial",
		"gridonopen" : 0,
		"gridsize" : [ 15.0, 15.0 ],
		"gridsnaponopen" : 0,
		"toolbarvisible" : 1,
		"boxanimatetime" : 200,
		"imprint" : 0,
		"boxes" : [ 			{
				"box" : 				{
					"maxclass" : "slider",
					"patching_rect" : [ 506.0, 241.0, 20.0, 140.0 ],
					"numinlets" : 1,
					"numoutlets" : 1,
					"outlettype" : [ "" ],
					"id" : "obj-18"
				}

			}
, 			{
				"box" : 				{
					"maxclass" : "newobj",
					"text" : "scale 0. 100. 0 127",
					"patching_rect" : [ 465.0, 203.0, 112.0, 20.0 ],
					"fontname" : "Arial",
					"numinlets" : 6,
					"numoutlets" : 1,
					"fontsize" : 12.0,
					"outlettype" : [ "float" ],
					"id" : "obj-19"
				}

			}
, 			{
				"box" : 				{
					"maxclass" : "slider",
					"patching_rect" : [ 416.0, 274.0, 20.0, 140.0 ],
					"numinlets" : 1,
					"numoutlets" : 1,
					"outlettype" : [ "" ],
					"id" : "obj-16"
				}

			}
, 			{
				"box" : 				{
					"maxclass" : "newobj",
					"text" : "scale 0. 100. 0 127",
					"patching_rect" : [ 375.0, 236.0, 112.0, 20.0 ],
					"fontname" : "Arial",
					"numinlets" : 6,
					"numoutlets" : 1,
					"fontsize" : 12.0,
					"outlettype" : [ "float" ],
					"id" : "obj-17"
				}

			}
, 			{
				"box" : 				{
					"maxclass" : "slider",
					"patching_rect" : [ 330.0, 237.0, 20.0, 140.0 ],
					"numinlets" : 1,
					"numoutlets" : 1,
					"outlettype" : [ "" ],
					"id" : "obj-14"
				}

			}
, 			{
				"box" : 				{
					"maxclass" : "newobj",
					"text" : "scale 0. 100. 0 127",
					"patching_rect" : [ 289.0, 199.0, 112.0, 20.0 ],
					"fontname" : "Arial",
					"numinlets" : 6,
					"numoutlets" : 1,
					"fontsize" : 12.0,
					"outlettype" : [ "float" ],
					"id" : "obj-15"
				}

			}
, 			{
				"box" : 				{
					"maxclass" : "slider",
					"patching_rect" : [ 243.0, 272.0, 20.0, 140.0 ],
					"numinlets" : 1,
					"numoutlets" : 1,
					"outlettype" : [ "" ],
					"id" : "obj-12"
				}

			}
, 			{
				"box" : 				{
					"maxclass" : "newobj",
					"text" : "scale 0. 100. 0 127",
					"patching_rect" : [ 202.0, 234.0, 112.0, 20.0 ],
					"fontname" : "Arial",
					"numinlets" : 6,
					"numoutlets" : 1,
					"fontsize" : 12.0,
					"outlettype" : [ "float" ],
					"id" : "obj-13"
				}

			}
, 			{
				"box" : 				{
					"maxclass" : "slider",
					"patching_rect" : [ 156.0, 239.0, 20.0, 140.0 ],
					"numinlets" : 1,
					"numoutlets" : 1,
					"outlettype" : [ "" ],
					"id" : "obj-10"
				}

			}
, 			{
				"box" : 				{
					"maxclass" : "newobj",
					"text" : "scale 0. 100. 0 127",
					"patching_rect" : [ 115.0, 201.0, 112.0, 20.0 ],
					"fontname" : "Arial",
					"numinlets" : 6,
					"numoutlets" : 1,
					"fontsize" : 12.0,
					"outlettype" : [ "float" ],
					"id" : "obj-11"
				}

			}
, 			{
				"box" : 				{
					"maxclass" : "slider",
					"patching_rect" : [ 52.0, 266.0, 20.0, 140.0 ],
					"numinlets" : 1,
					"numoutlets" : 1,
					"outlettype" : [ "" ],
					"id" : "obj-7"
				}

			}
, 			{
				"box" : 				{
					"maxclass" : "newobj",
					"text" : "scale 0. 100. 0 127",
					"patching_rect" : [ 11.0, 228.0, 112.0, 20.0 ],
					"fontname" : "Arial",
					"numinlets" : 6,
					"numoutlets" : 1,
					"fontsize" : 12.0,
					"outlettype" : [ "float" ],
					"id" : "obj-6"
				}

			}
, 			{
				"box" : 				{
					"maxclass" : "newobj",
					"text" : "route 0 1 2 3 4 5",
					"patching_rect" : [ 248.0, 143.0, 100.0, 20.0 ],
					"fontname" : "Arial",
					"numinlets" : 1,
					"numoutlets" : 7,
					"fontsize" : 12.0,
					"outlettype" : [ "", "", "", "", "", "", "" ],
					"id" : "obj-5"
				}

			}
, 			{
				"box" : 				{
					"maxclass" : "newobj",
					"text" : "route /test",
					"patching_rect" : [ 265.0, 106.0, 64.0, 20.0 ],
					"fontname" : "Arial",
					"numinlets" : 1,
					"numoutlets" : 2,
					"fontsize" : 12.0,
					"outlettype" : [ "", "" ],
					"id" : "obj-3"
				}

			}
, 			{
				"box" : 				{
					"maxclass" : "message",
					"text" : "3 9.152",
					"patching_rect" : [ 75.0, 138.0, 81.0, 18.0 ],
					"fontname" : "Arial",
					"numinlets" : 2,
					"numoutlets" : 1,
					"fontsize" : 12.0,
					"outlettype" : [ "" ],
					"id" : "obj-2"
				}

			}
, 			{
				"box" : 				{
					"maxclass" : "newobj",
					"text" : "udpreceive 12345",
					"patching_rect" : [ 254.0, 78.0, 106.0, 20.0 ],
					"fontname" : "Arial",
					"numinlets" : 1,
					"numoutlets" : 1,
					"fontsize" : 12.0,
					"outlettype" : [ "" ],
					"id" : "obj-1"
				}

			}
 ],
		"lines" : [ 			{
				"patchline" : 				{
					"source" : [ "obj-3", 0 ],
					"destination" : [ "obj-5", 0 ],
					"hidden" : 0,
					"midpoints" : [  ]
				}

			}
, 			{
				"patchline" : 				{
					"source" : [ "obj-5", 0 ],
					"destination" : [ "obj-6", 0 ],
					"hidden" : 0,
					"midpoints" : [  ]
				}

			}
, 			{
				"patchline" : 				{
					"source" : [ "obj-5", 1 ],
					"destination" : [ "obj-11", 0 ],
					"hidden" : 0,
					"midpoints" : [  ]
				}

			}
, 			{
				"patchline" : 				{
					"source" : [ "obj-5", 2 ],
					"destination" : [ "obj-13", 0 ],
					"hidden" : 0,
					"midpoints" : [  ]
				}

			}
, 			{
				"patchline" : 				{
					"source" : [ "obj-5", 3 ],
					"destination" : [ "obj-15", 0 ],
					"hidden" : 0,
					"midpoints" : [  ]
				}

			}
, 			{
				"patchline" : 				{
					"source" : [ "obj-5", 4 ],
					"destination" : [ "obj-17", 0 ],
					"hidden" : 0,
					"midpoints" : [  ]
				}

			}
, 			{
				"patchline" : 				{
					"source" : [ "obj-5", 5 ],
					"destination" : [ "obj-19", 0 ],
					"hidden" : 0,
					"midpoints" : [ 433.0, 167.0 ]
				}

			}
, 			{
				"patchline" : 				{
					"source" : [ "obj-19", 0 ],
					"destination" : [ "obj-18", 0 ],
					"hidden" : 0,
					"midpoints" : [  ]
				}

			}
, 			{
				"patchline" : 				{
					"source" : [ "obj-17", 0 ],
					"destination" : [ "obj-16", 0 ],
					"hidden" : 0,
					"midpoints" : [  ]
				}

			}
, 			{
				"patchline" : 				{
					"source" : [ "obj-15", 0 ],
					"destination" : [ "obj-14", 0 ],
					"hidden" : 0,
					"midpoints" : [  ]
				}

			}
, 			{
				"patchline" : 				{
					"source" : [ "obj-13", 0 ],
					"destination" : [ "obj-12", 0 ],
					"hidden" : 0,
					"midpoints" : [  ]
				}

			}
, 			{
				"patchline" : 				{
					"source" : [ "obj-11", 0 ],
					"destination" : [ "obj-10", 0 ],
					"hidden" : 0,
					"midpoints" : [  ]
				}

			}
, 			{
				"patchline" : 				{
					"source" : [ "obj-6", 0 ],
					"destination" : [ "obj-7", 0 ],
					"hidden" : 0,
					"midpoints" : [  ]
				}

			}
, 			{
				"patchline" : 				{
					"source" : [ "obj-3", 0 ],
					"destination" : [ "obj-2", 1 ],
					"hidden" : 0,
					"midpoints" : [  ]
				}

			}
, 			{
				"patchline" : 				{
					"source" : [ "obj-1", 0 ],
					"destination" : [ "obj-3", 0 ],
					"hidden" : 0,
					"midpoints" : [  ]
				}

			}
 ]
	}

}
